<?xml version="1.0" encoding="UTF-8"?><svg id="a" xmlns="http://www.w3.org/2000/svg" viewBox="0 0 176.29 176.29"><defs><style>.b{fill:#fff;stroke:#251602;stroke-miterlimit:10;stroke-width:4px;}.c{fill:#0080ff;}.d{fill:#ff2833;}.e{fill:#251602;}</style></defs><rect class="b" x="2" y="2" width="172.29" height="172.29" rx="16" ry="16"/><path class="d" d="M22.07,155.56c-.7,0-1.05-.35-1.05-1.05v-44.1c0-.64.22-1.2.67-1.68l8.38-8.38c.47-.45,1.03-.67,1.68-.67h9.22c.67,0,1.23.22,1.68.67l7.08,7.08h1.93l7.08-7.08c.45-.45,1-.67,1.68-.67h9.22c.64,0,1.2.22,1.68.67l8.38,8.38c.45.48.67,1.03.67,1.68v44.1c0,.7-.35,1.05-1.05,1.05h-15.35c-.7,0-1.05-.35-1.05-1.05v-34.58h-3.52v34.58c0,.7-.35,1.05-1.05,1.05h-15.35c-.7,0-1.05-.35-1.05-1.05v-34.58h-3.52v34.58c0,.7-.35,1.05-1.05,1.05h-15.34Z"/><path class="e" d="M79.34,158.11h-15.34c-1.19,0-2.17-.47-2.81-1.25-.64.78-1.62,1.25-2.81,1.25h-15.34c-1.19,0-2.17-.47-2.81-1.25-.64.78-1.62,1.25-2.81,1.25h-15.34c-2.11,0-3.59-1.48-3.59-3.59v-44.1c0-1.29.47-2.47,1.36-3.42l8.44-8.44c1-.94,2.18-1.42,3.47-1.42h9.22c1.35,0,2.55.49,3.47,1.41l6.25,6.25,6.25-6.25c.93-.93,2.13-1.42,3.47-1.42h9.22c1.28,0,2.46.47,3.41,1.35l8.45,8.44c.95,1.01,1.42,2.19,1.42,3.48v44.1c0,2.12-1.48,3.59-3.59,3.59ZM23.57,154.51h0s0,0,0,0ZM65.49,153.02h12.35v-42.6l-8.31-8.26-9.1.08-7.7,7.75h-4.04l-7.83-7.83-9.1.08-8.26,8.31.07,42.48h12.35v-35.63h8.61v35.63h12.35v-35.63h8.61v35.63Z"/><path class="d" d="M81.43,155.56c-.7,0-1.05-.35-1.05-1.05v-38.86c0-.45.14-.86.42-1.26l9.89-14.08c.31-.42.75-.63,1.34-.63h15.01c.61,0,1.06.21,1.34.63l9.97,14.08c.28.39.42.81.42,1.26v38.86c0,.7-.35,1.05-1.05,1.05h-15.34c-.7,0-1.05-.35-1.05-1.05v-15.72h-3.52v15.72c0,.7-.35,1.05-1.05,1.05h-15.34Z"/><path class="e" d="M117.73,158.11h-15.34c-1.19,0-2.17-.47-2.81-1.25-.64.78-1.62,1.25-2.81,1.25h-15.34c-2.12,0-3.59-1.48-3.59-3.59v-38.86c0-.98.31-1.92.9-2.74l9.88-14.06c.81-1.11,2.02-1.71,3.42-1.71h15.01c1.47,0,2.7.63,3.46,1.76l9.93,14.02c.58.81.89,1.75.89,2.73v38.86c0,2.12-1.48,3.59-3.59,3.59ZM103.88,153.02h12.35v-37.22l-9.61-13.57h-14.17l-9.53,13.57v37.22h12.35v-16.77h8.61v16.77ZM106.31,101.79s.02.03.03.04l-.03-.04Z"/><path class="e" d="M99.55,126.8c1.97,0,3.57-.62,4.79-1.88,1.23-1.25,1.84-2.83,1.84-4.76s-.61-3.5-1.84-4.72c-1.22-1.22-2.82-1.84-4.79-1.84s-3.5.61-4.72,1.84c-1.22,1.22-1.84,2.8-1.84,4.72s.61,3.51,1.84,4.76c1.23,1.25,2.8,1.88,4.72,1.88Z"/><path class="d" d="M119.83,155.56c-.7,0-1.05-.35-1.05-1.05v-53.78c0-.7.35-1.05,1.05-1.05h25.9c.64,0,1.2.22,1.68.67l8.38,8.38c.47.48.71,1.03.71,1.68v20.54c0,.67-.24,1.23-.71,1.68l-8.38,8.39c-.48.47-1.03.71-1.68.71h-9.51v12.78c0,.7-.35,1.05-1.05,1.05h-15.34Z"/><path class="e" d="M135.17,158.11h-15.34c-2.12,0-3.59-1.48-3.59-3.59v-53.78c0-2.11,1.48-3.59,3.59-3.59h25.9c1.29,0,2.47.47,3.42,1.36l8.45,8.44c.95.95,1.46,2.16,1.46,3.48v20.54c0,1.38-.53,2.61-1.52,3.54l-8.32,8.33c-.96.95-2.16,1.46-3.48,1.46h-6.97v10.24c0,2.12-1.48,3.59-3.59,3.59ZM121.32,153.02h12.35v-13.83h12.06l8.23-8.32v-20.45l-8.35-8.26-24.29.07v50.79ZM119.83,102.23h0,0Z"/><path class="e" d="M137.25,127.06c1.9,0,3.44-.6,4.62-1.81,1.18-1.2,1.77-2.73,1.77-4.58s-.59-3.37-1.77-4.55c-1.18-1.18-2.72-1.77-4.62-1.77s-3.37.59-4.55,1.77c-1.18,1.18-1.77,2.7-1.77,4.55s.59,3.38,1.77,4.58c1.18,1.21,2.7,1.81,4.55,1.81Z"/><path class="c" d="M108.36,84.71c-.8,0-1.19-.4-1.19-1.2V22.27c0-.8.4-1.19,1.19-1.19h17.47c.8,0,1.19.4,1.19,1.19v43.35h8.07c.79,0,1.19.4,1.19,1.19v16.71c0,.8-.4,1.2-1.19,1.2h-26.74Z"/><path class="e" d="M135.1,87.61h-26.74c-2.41,0-4.09-1.68-4.09-4.09V22.27c0-2.41,1.68-4.09,4.09-4.09h17.47c2.41,0,4.09,1.68,4.09,4.09v40.45h5.17c2.41,0,4.09,1.68,4.09,4.09v16.71c0,2.41-1.68,4.09-4.09,4.09ZM110.07,81.82h23.33v-13.3h-9.26V23.97h-14.06v57.84Z"/><path class="c" d="M137.48,84.71c-.8,0-1.19-.4-1.19-1.2V22.27c0-.8.4-1.19,1.19-1.19h17.47c.8,0,1.19.4,1.19,1.19v61.25c0,.8-.4,1.2-1.19,1.2h-17.47Z"/><path class="e" d="M154.96,87.61h-17.47c-2.41,0-4.09-1.68-4.09-4.09V22.27c0-2.41,1.68-4.09,4.09-4.09h17.47c2.41,0,4.09,1.68,4.09,4.09v61.25c0,2.41-1.68,4.09-4.09,4.09ZM139.19,81.82h14.07V23.97h-14.07v57.84Z"/><path class="c" d="M21.33,84.71c-.8,0-1.19-.4-1.19-1.2V22.27c0-.8.4-1.19,1.19-1.19h29.5c.73,0,1.37.25,1.91.76l9.55,9.55c.54.54.81,1.18.81,1.91v23.39c0,.76-.27,1.4-.81,1.91l-9.55,9.55c-.54.54-1.18.81-1.91.81h-10.84v14.56c0,.8-.4,1.2-1.19,1.2h-17.47Z"/><path class="e" d="M38.8,87.61h-17.47c-2.41,0-4.09-1.68-4.09-4.09V22.27c0-2.41,1.68-4.09,4.09-4.09h29.5c1.47,0,2.81.54,3.89,1.55l9.61,9.61c1.09,1.09,1.66,2.46,1.66,3.96v23.39c0,1.57-.6,2.96-1.73,4.02l-9.48,9.49c-1.09,1.08-2.45,1.66-3.96,1.66h-7.94v11.66c0,2.41-1.68,4.09-4.09,4.09ZM23.03,81.82h14.07v-15.75h13.73l9.37-9.48v-23.29l-9.51-9.41-27.66.08v57.85ZM21.34,23.97h0,0Z"/><path class="e" d="M41.17,52.33c2.18,0,3.95-.69,5.31-2.08,1.36-1.38,2.04-3.14,2.04-5.27s-.68-3.88-2.04-5.23c-1.36-1.36-3.13-2.04-5.31-2.04s-3.87.68-5.23,2.04c-1.36,1.36-2.04,3.1-2.04,5.23s.68,3.89,2.04,5.27c1.36,1.39,3.1,2.08,5.23,2.08Z"/><path class="c" d="M75.33,84.71c-.73,0-1.37-.27-1.91-.81l-9.55-9.55c-.51-.51-.76-1.14-.76-1.91v-39.15c0-.73.25-1.37.76-1.91l9.55-9.55c.54-.51,1.18-.76,1.91-.76h19.57c.76,0,1.4.25,1.91.76l9.55,9.55c.54.54.81,1.18.81,1.91v39.15c0,.76-.27,1.4-.81,1.91l-9.55,9.55c-.51.54-1.15.81-1.91.81h-19.57Z"/><path class="e" d="M94.9,87.61h-19.57c-1.51,0-2.88-.58-3.97-1.67l-9.54-9.54c-1.05-1.05-1.61-2.42-1.61-3.96v-39.15c0-1.47.54-2.81,1.55-3.89l9.61-9.61c1.14-1.08,2.49-1.61,3.96-1.61h19.57c1.53,0,2.9.56,3.96,1.61l9.55,9.55c1.09,1.09,1.66,2.46,1.66,3.96v39.15c0,1.57-.6,2.96-1.73,4.02l-9.48,9.48c-.99,1.06-2.38,1.66-3.96,1.66ZM94.7,81.92s0,0,0,0h0ZM75.43,81.82h19.37l9.47-9.47v-39.04l-9.51-9.41-19.43.09-9.41,9.46.08,38.95,9.43,9.43ZM65.91,72.3h0,0Z"/><path class="e" d="M90.21,63.21c0,3-2.27,5.43-5.08,5.43s-5.08-2.43-5.08-5.43c0-.02-.02-21.2-.02-21.22.03-2.12,1.89-4.98,5.1-4.98s5.04,2.88,5.05,5c0,.01.02,21.19.02,21.2Z"/></svg>