<?xml version="1.0" encoding="UTF-8"?><svg id="a" xmlns="http://www.w3.org/2000/svg" viewBox="0 0 153.3 35.95"><defs><style>.b{fill:#2b7fff;}.b,.c{stroke:#261c0a;stroke-miterlimit:10;stroke-width:3px;}.c{fill:#fb2c36;}.d{fill:#261c0a;}</style></defs><path class="b" d="M47.18,34.45c-.41,0-.62-.21-.62-.62V2.12c0-.41.21-.62.62-.62h9.05c.41,0,.62.21.62.62v22.44h4.18c.41,0,.62.21.62.62v8.65c0,.41-.21.62-.62.62h-13.84Z"/><path class="b" d="M62.25,34.45c-.41,0-.62-.21-.62-.62V2.12c0-.41.21-.62.62-.62h9.05c.41,0,.62.21.62.62v31.71c0,.41-.21.62-.62.62h-9.05Z"/><path class="c" d="M72.53,34.45c-.41,0-.62-.21-.62-.62V7.83c0-.38.13-.71.4-.99l4.94-4.94c.28-.26.61-.39.99-.39h5.44c.39,0,.72.13.99.39l4.18,4.18h1.14l4.18-4.18c.26-.26.59-.39.99-.39h5.44c.38,0,.71.13.99.39l4.94,4.94c.26.28.4.61.4.99v26c0,.41-.21.62-.62.62h-9.05c-.41,0-.62-.21-.62-.62V13.44h-2.08v20.39c0,.41-.21.62-.62.62h-9.05c-.41,0-.62-.21-.62-.62V13.44h-2.08v20.39c0,.41-.21.62-.62.62h-9.05Z"/><path class="b" d="M2.12,34.45c-.41,0-.62-.21-.62-.62V2.12c0-.41.21-.62.62-.62h15.27c.38,0,.71.13.99.39l4.94,4.94c.28.28.42.61.42.99v12.11c0,.4-.14.73-.42.99l-4.94,4.94c-.28.28-.61.42-.99.42h-5.61v7.54c0,.41-.21.62-.62.62H2.12Z"/><path class="d" d="M12.39,17.68c1.13,0,2.05-.36,2.75-1.08.7-.72,1.05-1.63,1.05-2.73s-.35-2.01-1.05-2.71c-.7-.7-1.62-1.05-2.75-1.05s-2.01.35-2.71,1.05c-.7.7-1.05,1.61-1.05,2.71s.35,2.01,1.05,2.73c.7.72,1.61,1.08,2.71,1.08Z"/><path class="c" d="M107.53,34.45c-.41,0-.62-.21-.62-.62V10.92c0-.26.08-.51.25-.74l5.83-8.3c.18-.25.44-.37.79-.37h8.85c.36,0,.63.12.79.37l5.88,8.3c.17.23.25.48.25.74v22.91c0,.41-.21.62-.62.62h-9.05c-.41,0-.62-.21-.62-.62v-9.27h-2.08v9.27c0,.41-.21.62-.62.62h-9.04Z"/><path class="d" d="M118.21,17.49c1.16,0,2.1-.37,2.83-1.11.72-.74,1.08-1.67,1.08-2.8s-.36-2.06-1.08-2.78c-.72-.72-1.66-1.08-2.83-1.08s-2.06.36-2.78,1.08c-.72.72-1.08,1.65-1.08,2.78s.36,2.07,1.08,2.8c.72.74,1.65,1.11,2.78,1.11Z"/><path class="c" d="M130.17,34.45c-.41,0-.62-.21-.62-.62V2.12c0-.41.21-.62.62-.62h15.27c.38,0,.71.13.99.39l4.94,4.94c.28.28.42.61.42.99v12.11c0,.4-.14.73-.42.99l-4.94,4.94c-.28.28-.61.42-.99.42h-5.61v7.54c0,.41-.21.62-.62.62h-9.04Z"/><path class="d" d="M140.45,17.64c1.12,0,2.03-.35,2.72-1.07.7-.71,1.04-1.61,1.04-2.7s-.35-1.99-1.04-2.68c-.7-.7-1.6-1.04-2.72-1.04s-1.99.35-2.68,1.04c-.7.7-1.04,1.59-1.04,2.68s.35,1.99,1.04,2.7c.7.71,1.59,1.07,2.68,1.07Z"/><path class="b" d="M30.07,34.45c-.38,0-.71-.14-.99-.42l-4.94-4.94c-.26-.26-.4-.59-.4-.99V7.83c0-.38.13-.71.4-.99l4.94-4.94c.28-.26.61-.39.99-.39h10.13c.4,0,.72.13.99.39l4.94,4.94c.28.28.42.61.42.99v20.27c0,.4-.14.73-.42.99l-4.94,4.94c-.26.28-.59.42-.99.42h-10.13Z"/><path class="d" d="M37.78,23.31c0,1.55-1.18,2.81-2.63,2.81s-2.63-1.26-2.63-2.81c0,0-.01-10.98-.01-10.99.01-1.1.98-2.58,2.64-2.58s2.61,1.49,2.62,2.59c0,0,.01,10.97.01,10.98Z"/></svg>