<?xml version="1.0" encoding="UTF-8"?>
<svg xmlns="http://www.w3.org/2000/svg" version="1.1" viewBox="0 0 200 120">
  <defs>
    <style>
      .cls-1 {
        fill: #0080ff;
      }

      .cls-1, .cls-2 {
        stroke: #251602;
        stroke-miterlimit: 10;
        stroke-width: 3px;
      }

      .cls-3 {
        fill: none;
      }

      .cls-3, .cls-4 {
        stroke: #af9252;
        stroke-linecap: round;
        stroke-linejoin: round;
        stroke-width: 2px;
      }

      .cls-4 {
        fill: #e8c97e;
        fill-rule: evenodd;
      }

      .cls-2 {
        fill: #ff2833;
      }

      .cls-5 {
        fill: #251602;
      }
    </style>
  </defs>
  <!-- Generator: Adobe Illustrator 28.7.1, SVG Export Plug-In . SVG Version: 1.2.0 Build 142)  -->
  <g>
    <g id="Camada_1">
      <g>
        <path class="cls-4" d="M65.3,34.6C45,55.9.7,97.1,3.2,98.4c1,.4,54.1,5.7,59.5,2.2,5.4-3.5,57.3-.9,57.3-.9,18.9-24,75.6-80.4,76.1-80.2,0,0-52.1-5.6-60.6-1.9-8.4,3.8-52.8-1.7-52.8-1.6,0,0-2.8,3.1-17.4,18.6h0Z"/>
        <path class="cls-3" d="M69.7,37.4c-17.6,18.6-56.1,54.4-53.9,55.5.8.4,47.3,3.8,52,.7,4.7-3.1,49.5.4,49.5.4,16.4-20.9,65.8-69.9,66.2-69.7,0,0-45.2-4.8-52.6-1.6-7.4,3.2-46-1.5-46-1.4,0,0-2.4,2.7-15.2,16.1h0Z"/>
        <path class="cls-3" d="M172.4,35.1s-44.6-4.8-52-1.6c-7.4,3.3-45.6-1.5-45.6-1.4"/>
        <path class="cls-3" d="M161,46.5s-44.1-4.7-51.5-1.5c-7.3,3.2-45.6-1.5-45.6-1.4"/>
        <path class="cls-3" d="M149.4,58s-44-4.7-51.4-1.5c-7.3,3.3-45.6-1.5-45.6-1.4"/>
        <path class="cls-3" d="M137.8,70.6s-44.6-4.8-52-1.5c-7.3,3.2-45.6-1.5-45.6-1.5"/>
        <path class="cls-3" d="M125.6,83.8s-46.1-5.1-53.5-1.9c-7.3,3.2-45.6-1.3-45.6-1.2"/>
        <path class="cls-3" d="M94.1,22.3L27.6,93.7,94.1,22.3Z"/>
        <path class="cls-3" d="M104.7,23.2l-64,71.2L104.7,23.2Z"/>
        <path class="cls-3" d="M115.6,23.9l-62.3,70.8L115.6,23.9Z"/>
        <path class="cls-3" d="M129.4,23.2l-61.4,70.2s61.4-70.2,61.4-70.2Z"/>
        <path class="cls-3" d="M141.7,21.6c-21.9,25.5-42.4,49.5-60,70.6"/>
        <path class="cls-3" d="M155.7,22.1c-23.7,26.4-45.4,51.1-60.6,70.5"/>
        <path class="cls-3" d="M170.5,23.2c-19.7,19.3-50.9,52.8-63.7,70.1"/>
      </g>
      <g>
        <path class="cls-1" d="M65,78.2c-.5,0-.7-.2-.7-.7v-37.2c0-.5.2-.7.7-.7h10.6c.5,0,.7.2.7.7v26.3h4.9c.5,0,.7.2.7.7v10.1c0,.5-.2.7-.7.7h-16.2Z"/>
        <path class="cls-1" d="M82.7,78.2c-.5,0-.7-.2-.7-.7v-37.2c0-.5.2-.7.7-.7h10.6c.5,0,.7.2.7.7v37.2c0,.5-.2.7-.7.7h-10.6Z"/>
        <path class="cls-2" d="M94.7,78.2c-.5,0-.7-.2-.7-.7v-30.5c0-.4.2-.8.5-1.2l5.8-5.8c.3-.3.7-.5,1.2-.5h6.4c.5,0,.8.2,1.2.5l4.9,4.9h1.3l4.9-4.9c.3-.3.7-.5,1.2-.5h6.4c.4,0,.8.2,1.2.5l5.8,5.8c.3.3.5.7.5,1.2v30.5c0,.5-.2.7-.7.7h-10.6c-.5,0-.7-.2-.7-.7v-23.9h-2.4v23.9c0,.5-.2.7-.7.7h-10.6c-.5,0-.7-.2-.7-.7v-23.9h-2.4v23.9c0,.5-.2.7-.7.7h-10.6,0Z"/>
        <g>
          <path class="cls-1" d="M12.2,78.2c-.5,0-.7-.2-.7-.7v-37.2c0-.5.2-.7.7-.7h17.9c.4,0,.8.2,1.2.5l5.8,5.8c.3.3.5.7.5,1.2v14.2c0,.5-.2.9-.5,1.2l-5.8,5.8c-.3.3-.7.5-1.2.5h-6.6v8.8c0,.5-.2.7-.7.7h-10.6Z"/>
          <path class="cls-5" d="M24.3,58.6c1.3,0,2.4-.4,3.2-1.3s1.2-1.9,1.2-3.2-.4-2.4-1.2-3.2-1.9-1.2-3.2-1.2-2.4.4-3.2,1.2-1.2,1.9-1.2,3.2.4,2.4,1.2,3.2,1.9,1.3,3.2,1.3Z"/>
        </g>
        <g>
          <path class="cls-2" d="M135.8,78.2c-.5,0-.7-.2-.7-.7v-26.8c0-.3,0-.6.3-.9l6.8-9.7c.2-.3.5-.4.9-.4h10.4c.4,0,.7.1.9.4l6.9,9.7c.2.3.3.6.3.9v26.8c0,.5-.2.7-.7.7h-10.6c-.5,0-.7-.2-.7-.7v-10.9h-2.4v10.9c0,.5-.2.7-.7.7h-10.6,0Z"/>
          <path class="cls-5" d="M148.3,58.4c1.4,0,2.5-.4,3.3-1.3.8-.9,1.3-2,1.3-3.3s-.4-2.4-1.3-3.3c-.8-.8-1.9-1.3-3.3-1.3s-2.4.4-3.3,1.3-1.3,1.9-1.3,3.3.4,2.4,1.3,3.3c.8.9,1.9,1.3,3.3,1.3Z"/>
        </g>
        <g>
          <path class="cls-2" d="M162.3,78.2c-.5,0-.7-.2-.7-.7v-37.2c0-.5.2-.7.7-.7h17.9c.4,0,.8.2,1.2.5l5.8,5.8c.3.3.5.7.5,1.2v14.2c0,.5-.2.9-.5,1.2l-5.8,5.8c-.3.3-.7.5-1.2.5h-6.6v8.8c0,.5-.2.7-.7.7h-10.6Z"/>
          <path class="cls-5" d="M174.3,58.5c1.3,0,2.4-.4,3.2-1.3.8-.8,1.2-1.9,1.2-3.2s-.4-2.3-1.2-3.1c-.8-.8-1.9-1.2-3.2-1.2s-2.3.4-3.1,1.2c-.8.8-1.2,1.9-1.2,3.1s.4,2.3,1.2,3.2c.8.8,1.9,1.3,3.1,1.3Z"/>
        </g>
        <g>
          <path class="cls-1" d="M45,78.2c-.4,0-.8-.2-1.2-.5l-5.8-5.8c-.3-.3-.5-.7-.5-1.2v-23.8c0-.4.2-.8.5-1.2l5.8-5.8c.3-.3.7-.5,1.2-.5h11.9c.5,0,.8.2,1.2.5l5.8,5.8c.3.3.5.7.5,1.2v23.8c0,.5-.2.9-.5,1.2l-5.8,5.8c-.3.3-.7.5-1.2.5h-11.9Z"/>
          <path class="cls-5" d="M54,65.2c0,1.8-1.4,3.3-3.1,3.3s-3.1-1.5-3.1-3.3c0,0,0-12.9,0-12.9,0-1.3,1.1-3,3.1-3s3.1,1.7,3.1,3c0,0,0,12.9,0,12.9Z"/>
        </g>
      </g>
    </g>
  </g>
</svg>