<svg version="1.2" xmlns="http://www.w3.org/2000/svg" viewBox="0 0 200 120" width="200" height="120"><style>.a{fill:#e8c97e;stroke:#000;stroke-linecap:round;stroke-linejoin:round;stroke-width:4}.b{fill:#e8c97e;stroke:#000;stroke-linecap:round;stroke-linejoin:round;stroke-width:2}.c{fill:none;stroke:#000;stroke-linecap:round;stroke-linejoin:round;stroke-width:2}.d{fill:#254dd2;stroke:#000;stroke-linejoin:round;stroke-width:0}.e{fill:#e91d1d;stroke:#000;stroke-linejoin:round;stroke-width:0}</style><path fill-rule="evenodd" class="a" d="m65.6 35.8c-20.3 21.3-64.6 62.5-62.1 63.8 1 0.4 54.1 5.7 59.5 2.2 5.4-3.5 57.3-0.9 57.3-0.9 18.9-24 75.6-80.4 76.1-80.2 0 0-52.1-5.6-60.6-1.9-8.4 3.8-52.8-1.7-52.8-1.6 0 0-2.8 3.1-17.4 18.6z"/><path fill-rule="evenodd" class="b" d="m70 38.6c-17.6 18.6-56.1 54.4-53.9 55.5 0.8 0.4 47.3 3.8 52 0.7 4.7-3.1 49.5 0.4 49.5 0.4 16.4-20.9 65.8-69.9 66.2-69.7 0 0-45.2-4.8-52.6-1.6-7.4 3.2-46-1.5-46-1.4 0 0-2.4 2.7-15.2 16.1z"/><path fill-rule="evenodd" class="c" d="m172.7 36.3c0 0-44.6-4.8-52-1.6-7.4 3.3-45.6-1.5-45.6-1.4"/><path fill-rule="evenodd" class="c" d="m161.3 47.8c0 0-44.6-4.8-52-1.6-7.3 3.2-45.6-1.5-45.6-1.4"/><path fill-rule="evenodd" class="c" d="m150.3 59.3c0 0-44.6-4.8-52-1.6-7.3 3.3-45.6-1.5-45.6-1.4"/><path fill-rule="evenodd" class="c" d="m138.1 71.8c0 0-44.6-4.8-52-1.5-7.3 3.2-45.6-1.5-45.6-1.5"/><path fill-rule="evenodd" class="c" d="m125.9 85c0 0-46.1-5.1-53.5-1.9-7.3 3.2-45.6-1.5-45.6-1.4"/><path fill-rule="evenodd" class="b" d="m94.4 23.5l-66.5 71.4z"/><path fill-rule="evenodd" class="b" d="m103 24.4l-64 71.2z"/><path fill-rule="evenodd" class="b" d="m114.9 25.1l-62.3 70.8z"/><path fill-rule="evenodd" class="b" d="m129.7 24.4l-61.4 70.2z"/><path fill-rule="evenodd" class="b" d="m142 22.8l-60 70.6z"/><path fill-rule="evenodd" class="b" d="m156 23.3l-60.6 70.5z"/><path fill-rule="evenodd" class="b" d="m168.5 24.2l-61.4 70.3z"/><path class="d" d="m31.3 70.2h-6.6v-25.2h12.1q4.3 0 6.6 2.2 2.4 2.2 2.4 6 0 3.9-2.4 6.1-2.3 2.2-6.6 2.2h-5.5zm0-20.2v6.5h4.4q3.8 0 3.8-3.3 0-3.2-3.8-3.2zm26.4 20.6q-3.8 0-6.7-1.6-2.8-1.7-4.5-4.6-1.6-3-1.6-6.8 0-4 1.6-6.9 1.6-2.9 4.5-4.5 2.9-1.6 6.7-1.6 3.9 0 6.7 1.6 2.9 1.6 4.6 4.5 1.5 2.9 1.5 6.9 0 3.8-1.5 6.8-1.7 2.9-4.6 4.6-2.8 1.6-6.7 1.6zm0-5.5q2.8 0 4.4-2 1.6-2 1.6-5.5 0-3.6-1.5-5.6-1.6-1.9-4.5-1.9-2.8 0-4.4 1.9-1.5 2-1.5 5.6 0 3.5 1.5 5.5 1.6 2 4.4 2zm31.4 5.1h-17.9v-25.2h6.6v19.7h11.3zm6.4 0h-6.6v-25.2h6.6z"/><path class="e" d="m101.4 70.2h-5.9v-25.2h5.5l8 14.4 8.1-14.4h5.3v25.2h-5.9v-13.7l-5.8 9.9h-3.6l-5.7-9.8zm26 0h-6.6l11.8-25.2h5.2l11.8 25.2h-6.6l-2.2-5.1h-11.2zm7.8-18.3h-0.1l-3.4 8.1h6.9zm19.3 18.4h-6.6v-25.2h12.2q4.2 0 6.6 2.2 2.3 2.2 2.3 6.1 0 3.8-2.3 6-2.4 2.2-6.6 2.2h-5.6zm0-20.2v6.5h4.4q3.9 0 3.9-3.2 0-3.3-3.9-3.3z"/></svg>